<?xml version="1.0" encoding="UTF-8" standalone="no"?><!DOCTYPE svg PUBLIC "-//W3C//DTD SVG 1.1//EN" "http://www.w3.org/Graphics/SVG/1.1/DTD/svg11.dtd"><svg width="100%" height="100%" viewBox="0 0 100 100" version="1.1" xmlns="http://www.w3.org/2000/svg" xmlns:xlink="http://www.w3.org/1999/xlink" xml:space="preserve" xmlns:serif="http://www.serif.com/" style="fill-rule:evenodd;clip-rule:evenodd;stroke-linejoin:round;stroke-miterlimit:1.41421;"><rect id="icon" x="0" y="0" width="100" height="100" style="fill:none;"/><clipPath id="_clip1"><rect x="0" y="0" width="100" height="100"/></clipPath><g clip-path="url(#_clip1)"><circle cx="50.213" cy="49.839" r="47.981" style="fill:#06f;"/><path id="globe" d="M75,25l0,3.571l-1.786,-1.785l0,-1.786l-1.785,0l0,1.786l-1.786,0l0,-3.572l1.786,0l-1.786,-1.785l1.786,0l3.571,3.571Zm-16.071,-10.714l-1.786,0l3.571,3.571l3.572,-1.786l-1.786,-1.785l-3.571,0Zm-21.429,16.071l3.571,1.786l-1.785,-3.572l-1.786,0l-1.786,1.786l1.786,0Zm-17.857,21.429l-1.786,0l3.572,1.785l1.785,0l-3.571,-1.785Zm3.571,3.571l3.572,0l0,-1.786l-1.786,0l-1.786,1.786Zm-3.571,1.786l1.786,-1.786l-1.786,0l0,1.786Zm80.357,-7.143c0,27.5 -22.5,50 -50,50c-27.5,0 -50,-22.5 -50,-50c0,-27.5 22.5,-50 50,-50c27.5,0 50,22.5 50,50Zm-17.857,-30.357l0,3.571l-1.786,1.786l1.786,0l1.786,-1.786l0,-1.785l-1.786,-1.786l-1.786,-3.572l-1.786,0l1.786,3.572l1.786,0Zm8.928,16.071l3.036,0c-0.178,-0.535 -0.357,-1.25 -0.536,-1.785l-0.714,0l-1.786,-1.786l0,3.571Zm-53.571,58.929l-3.571,-5.357l-3.572,-8.929l-3.571,-1.786l-5.357,-5.357l-1.786,-3.571l1.786,-3.572l0,-3.571l-1.786,1.786l-3.572,-1.786l-1.785,-3.571l-1.786,0l-1.786,-1.786l-1.785,0l-3.572,-3.572l0,-1.785l-1.786,-2.679c0,0.357 0,0.536 0,0.893c0,21.25 14.465,39.286 33.929,44.643Zm12.5,1.786c9.286,0 17.857,-2.679 25,-7.322l0,-1.607l3.571,-5.357l0,-1.786l1.786,-3.571l1.786,0l0,-5.357l-1.786,-1.786l1.786,-3.572l-1.786,-1.785l-3.571,1.785l-3.572,0l-3.571,-1.785l-1.786,-3.572l-1.786,-1.785l0,-1.786l1.786,-1.786l0,-3.571l1.786,-5.357l1.786,0l1.785,-3.572l1.786,-1.786l3.571,0l1.786,-1.785l3.572,0l1.785,3.571l1.786,1.786l1.786,0l1.785,-1.786l1.786,1.786l1.786,0l-1.786,-3.572l-1.786,0l-1.785,-3.571l-1.786,3.571l-1.786,-1.785l1.786,-1.786l-5.357,-3.571l-1.786,0l-1.786,0l1.786,1.785l-1.786,0l0,3.572l-1.785,0l-1.786,1.785l0,-1.785l-3.571,0l0,-3.572l1.785,-1.785l3.572,0l0,-1.786l-1.786,-1.786l-1.786,-1.786l1.786,0l1.786,-3.571l1.785,0l0,-3.571l-1.785,0l-1.786,-3.572l1.786,-1.786l-1.786,-3.571l0.536,-1.25c-5.536,-3.75 -11.965,-6.25 -18.929,-7.321l-1.25,1.428l3.572,1.786l-1.786,1.786l0,3.571l-3.572,1.786l-3.571,0l-1.786,3.571l-1.785,1.786l-3.572,-1.786l-1.786,-5.357l1.786,-3.571l-1.786,-1.786l-3.571,0l0,-1.786c-0.893,0.179 -1.786,0.536 -2.5,0.714l-1.071,1.072l-1.786,0c-2.322,1.071 -4.643,2.143 -6.786,3.571l1.429,0l1.785,-1.785l5.358,0l1.785,1.785l-1.785,1.786l1.785,0l1.786,1.786l-1.786,1.785l-1.785,1.786l-1.786,0l-1.786,-1.786l-1.786,0l3.572,-1.785l-1.786,-1.786l-3.571,1.786l0,1.785l-3.572,0l-5.357,3.572l0,1.786l1.786,1.785l1.786,0l0,3.572l1.785,0l0,-1.786l3.572,-3.571l-1.786,-1.786l1.786,-1.786l3.571,0l0,1.786l1.786,1.786l1.786,-1.786l1.785,3.571l3.572,1.786l-1.786,3.571l0,-1.785l-1.786,1.785l-3.571,0l-1.786,1.786l1.786,0l1.786,1.786l-5.358,1.786l-1.785,0l0,1.785l-3.572,1.786l-1.785,3.571l-3.572,3.572l1.786,3.571l-1.786,1.786l-1.786,-1.786l-1.785,-1.785l-3.572,0l-1.785,3.571l0,3.571l1.785,1.786l1.786,-1.786l3.571,-1.785l-1.785,1.785l0,3.572l1.785,0l0,1.786l1.786,3.571l1.786,0l1.786,-1.786l3.571,-1.785l1.786,1.785l5.357,0l3.571,3.572l3.572,0l3.571,3.571l5.357,1.786l3.572,1.786l1.785,3.571l-3.571,1.786l0,5.357l-3.571,1.786l-1.786,0l0,3.571l-3.572,3.571l0,1.786l-1.785,1.786l0.714,0.714c3.214,0.714 6.607,1.072 10,1.072Z" style="fill:#0c6;fill-rule:nonzero;"/></g></svg>